<svg id="Layer_1" data-name="Layer 1" xmlns="http://www.w3.org/2000/svg" viewBox="0 0 292 428"><path d="M72.5,125.82s-1.13-5.89,2.24-9.59S86.34,113,86.34,113s6.45,1.81,7.21,5.74l1.13,5.9s4.3,1.21,4.68,3.17-.23,4.12-3.18,4.68-2.72-3.55-5.89,1.13-5,6-6.5,3.28-2.15-.6-2.15-.6-5,6-9.22-.27S72.5,125.82,72.5,125.82Z" fill="#f0efec" stroke="#202326" stroke-miterlimit="10"/><path d="M79.15,128.62s-.52-8.05,4.95-6,3.55-2.72,4.87,4.16-1.4,3.32-1.4,3.32-3.51-2.38-4.72,1.92S79.15,128.62,79.15,128.62Z" fill="#c9c5ba" stroke="#202326" stroke-miterlimit="10"/><path d="M129.05,118s-1.13-5.89,2.23-9.59,11.6-3.24,11.6-3.24,6.46,1.81,7.21,5.74l1.13,5.9s4.31,1.21,4.68,3.17a3.66,3.66,0,0,1-3.17,4.68c-2.95.57-2.72-3.55-5.9,1.13s-5,6-6.49,3.28-2.16-.6-2.16-.6-5,6-9.21-.27S129.05,118,129.05,118Z" fill="#f0efec" stroke="#202326" stroke-miterlimit="10"/><path d="M135.7,120.84s-.53-8,5-6,3.55-2.72,4.87,4.16-1.4,3.32-1.4,3.32-3.51-2.38-4.73,1.92S135.7,120.84,135.7,120.84Z" fill="#c9c5ba" stroke="#202326" stroke-miterlimit="10"/><path d="M152.33,101.36s-1.32-6.87,2.61-7.63,4.72-1.92,9.17,5.37c0,0,6.69-2.3,8.8,3.41s-4.57,8-4.57,8,.33,7.07-2.24,9.59-8,.53-9.78-3.21l-1.73-3.74s-7.49,3.47-11.75-2.84S152.33,101.36,152.33,101.36Z" fill="#f0efec" stroke="#202326" stroke-miterlimit="10"/><path d="M157.27,105.93s-.5-2.56,1-2.86,1.86-.74,3.58,2c0,0,2.63-.89,3.44,1.24s-1.83,3-1.83,3,.11,2.64-.91,3.6-3.16.22-3.82-1.17l-.67-1.39s-3,1.32-4.6-1S157.27,105.93,157.27,105.93Z" fill="#c9c5ba" stroke="#202326" stroke-miterlimit="10"/><path d="M99.25,116.62s-1.32-6.87,2.61-7.63,4.72-1.92,9.18,5.37c0,0,6.68-2.3,8.79,3.41s-4.57,8-4.57,8,.33,7.07-2.24,9.59-8,.53-9.78-3.21l-1.73-3.74s-7.48,3.47-11.75-2.84S99.25,116.62,99.25,116.62Z" fill="#f0efec" stroke="#202326" stroke-miterlimit="10"/><path d="M104.19,121.19s-.49-2.56,1-2.86,1.86-.74,3.58,2c0,0,2.64-.89,3.44,1.24s-1.82,3-1.82,3,.1,2.64-.91,3.6-3.16.22-3.83-1.17L105,125.6s-3,1.32-4.6-1S104.19,121.19,104.19,121.19Z" fill="#c9c5ba" stroke="#202326" stroke-miterlimit="10"/><path d="M139.35,129.3A10.73,10.73,0,0,1,143,116.39c7.1-5.44,13.14-.48,13.14-.48l4.27,6.31s8.42,1.44,7,4.76-5.37,9.17-7.71,7.59a7.83,7.83,0,0,0-5.29-1s-1,5.29-5.93,6.23-6.88,1.32-8-4.58Z" fill="#f0efec" stroke="#202326" stroke-miterlimit="10"/><path d="M139.35,129.3A10.73,10.73,0,0,1,143,116.39c7.1-5.44,13.14-.48,13.14-.48l4.27,6.31s8.42,1.44,7,4.76-5.37,9.17-7.71,7.59a7.83,7.83,0,0,0-5.29-1s-1,5.29-5.93,6.23-6.88,1.32-8-4.58Z" fill="#f0efec" stroke="#202326" stroke-miterlimit="10"/><path d="M146.06,123.31a5.14,5.14,0,0,1,6.39-.24l2.07,3.07s4.09.7,3.41,2.32-4.05,2.71-5.19,1.94-1.12,1.24-1.12,1.24a4,4,0,0,1-2.89,3c-2.38.46-4.42.81-3.89-2.22.33-1.89,2.26-3.13,2-4.39C146.51,126.36,144.07,124.83,146.06,123.31Z" fill="#c9c5ba" stroke="#202326" stroke-miterlimit="10"/><path d="M196.1,117.24s-1.13-5.89,2.23-9.59,11.6-3.24,11.6-3.24,6.46,1.82,7.21,5.74l1.13,5.9s4.3,1.21,4.68,3.17a3.66,3.66,0,0,1-3.18,4.68c-2.94.57-2.71-3.55-5.89,1.13s-4.95,6-6.5,3.29-2.15-.61-2.15-.61-4.95,6-9.22-.27S196.1,117.24,196.1,117.24Z" fill="#f0efec" stroke="#202326" stroke-miterlimit="10"/><path d="M168.53,106.23s-1.13-5.89,2.24-9.59,11.6-3.24,11.6-3.24,6.45,1.82,7.21,5.74l1.12,5.9s4.31,1.21,4.69,3.17-.23,4.12-3.18,4.68-2.72-3.55-5.89,1.13-4.95,6-6.5,3.29-2.15-.61-2.15-.61-5,6-9.22-.27S168.53,106.23,168.53,106.23Z" fill="#f0efec" stroke="#202326" stroke-miterlimit="10"/><path d="M86.38,107.89A10.75,10.75,0,0,1,90,95c7.11-5.43,13.15-.48,13.15-.48l4.26,6.31s8.42,1.44,7,4.77-5.37,9.17-7.71,7.58a7.79,7.79,0,0,0-5.29-1s-1,5.29-5.93,6.23-6.87,1.31-8-4.58Z" fill="#f0efec" stroke="#202326" stroke-miterlimit="10"/><path d="M86.38,107.89A10.75,10.75,0,0,1,90,95c7.11-5.43,13.15-.48,13.15-.48l4.26,6.31s8.42,1.44,7,4.77-5.37,9.17-7.71,7.58a7.79,7.79,0,0,0-5.29-1s-1,5.29-5.93,6.23-6.87,1.31-8-4.58Z" fill="#f0efec" stroke="#202326" stroke-miterlimit="10"/><path d="M93.08,101.89a5.13,5.13,0,0,1,6.39-.23l2.07,3.07s4.1.7,3.42,2.31-4.06,2.72-5.19,1.95-1.13,1.24-1.13,1.24a4,4,0,0,1-2.88,3c-2.39.45-4.42.8-3.89-2.23.32-1.88,2.26-3.13,2-4.38C93.54,105,91.1,103.41,93.08,101.89Z" fill="#c9c5ba" stroke="#202326" stroke-miterlimit="10"/><path d="M108.23,83.06a10.74,10.74,0,0,1,9-10c8.78-1.75,12,5.36,12,5.36l1,7.55s6.93,5,4.2,7.37-8.86,5.86-10.26,3.41a7.8,7.8,0,0,0-4.3-3.25s-3.25,4.29-8.07,3-6.75-1.85-5.16-7.64Z" fill="#f0efec" stroke="#202326" stroke-miterlimit="10"/><path d="M108.23,83.06a10.74,10.74,0,0,1,9-10c8.78-1.75,12,5.36,12,5.36l1,7.55s6.93,5,4.2,7.37-8.86,5.86-10.26,3.41a7.8,7.8,0,0,0-4.3-3.25s-3.25,4.29-8.07,3-6.75-1.85-5.16-7.64Z" fill="#f0efec" stroke="#202326" stroke-miterlimit="10"/><path d="M116.9,80.64a5.13,5.13,0,0,1,5.83,2.61l.51,3.67s3.36,2.43,2,3.58-4.83.65-5.51-.55-1.56.63-1.56.63A4,4,0,0,1,114.28,92c-2.34-.64-4.32-1.23-2.51-3.71,1.13-1.55,3.41-1.81,3.74-3C116,83.58,114.44,81.13,116.9,80.64Z" fill="#c9c5ba" stroke="#202326" stroke-miterlimit="10"/><path d="M99.53,102.14s-1.13-5.89,2.24-9.59,11.59-3.24,11.59-3.24,6.46,1.82,7.21,5.75L121.7,101s4.31,1.21,4.68,3.17a3.67,3.67,0,0,1-3.17,4.69c-2.95.56-2.72-3.56-5.89,1.12s-5,6-6.5,3.29-2.16-.61-2.16-.61-5,6-9.21-.27S99.53,102.14,99.53,102.14Z" fill="#f0efec" stroke="#202326" stroke-miterlimit="10"/><path d="M139.86,89.15s5-4.88,7.81-2,4.2,2.89.55,10.62c0,0,5.6,4.32,2,9.22s-9.2.58-9.2.58-5.72,4.16-9.24,3.4-4.86-6.43-2.69-9.94l2.17-3.5s-7-4.35-4.08-11.38S139.86,89.15,139.86,89.15Z" fill="#f0efec" stroke="#202326" stroke-miterlimit="10"/><path d="M138.75,95.79s1.88-1.82,3-.69,1.64,1.15.32,4.07c0,0,2.19,1.72.85,3.56s-3.51.13-3.51.13-2.15,1.54-3.51,1.22-1.92-2.52-1.13-3.84l.8-1.32s-2.73-1.74-1.68-4.41S138.75,95.79,138.75,95.79Z" fill="#c9c5ba" stroke="#202326" stroke-miterlimit="10"/><path d="M183.78,116.72a10.75,10.75,0,0,1,3.63-12.92c7.11-5.43,13.15-.48,13.15-.48l4.26,6.31s8.42,1.44,7,4.77-5.37,9.17-7.71,7.58a7.76,7.76,0,0,0-5.28-1s-1,5.29-5.94,6.23-6.87,1.31-8-4.58Z" fill="#f0efec" stroke="#202326" stroke-miterlimit="10"/><path d="M183.78,116.72a10.75,10.75,0,0,1,3.63-12.92c7.11-5.43,13.15-.48,13.15-.48l4.26,6.31s8.42,1.44,7,4.77-5.37,9.17-7.71,7.58a7.76,7.76,0,0,0-5.28-1s-1,5.29-5.94,6.23-6.87,1.31-8-4.58Z" fill="#f0efec" stroke="#202326" stroke-miterlimit="10"/><path d="M190.49,110.72a5.11,5.11,0,0,1,6.38-.23l2.07,3.07s4.1.7,3.42,2.31-4.06,2.72-5.19,1.94-1.13,1.25-1.13,1.25a4,4,0,0,1-2.88,3c-2.39.45-4.42.8-3.89-2.23.33-1.88,2.26-3.13,2-4.38C190.94,113.78,188.5,112.24,190.49,110.72Z" fill="#c9c5ba" stroke="#202326" stroke-miterlimit="10"/><path d="M136.52,101.13s4.74,3.67,4.66,8.67-6.56,10.1-6.56,10.1-6,2.91-9.21.46l-4.74-3.68s-4,1.94-5.61.71a3.66,3.66,0,0,1-.71-5.61c1.84-2.37,4.38.87,3.67-4.74s-.27-7.81,2.71-6.76,2-1,2-1-.28-7.8,7.09-5.89S136.52,101.13,136.52,101.13Z" fill="#f0efec" stroke="#202326" stroke-miterlimit="10"/><path d="M169.94,97.63a10.73,10.73,0,0,1-11.49-6.92c-3.37-8.28,3-12.8,3-12.8l7.21-2.45s3.62-7.74,6.45-5.51,7.43,7.6,5.28,9.44A7.78,7.78,0,0,0,178,84.22s4.83,2.38,4.44,7.36-.54,7-6.52,6.52Z" fill="#f0efec" stroke="#202326" stroke-miterlimit="10"/><path d="M169.94,97.63a10.73,10.73,0,0,1-11.49-6.92c-3.37-8.28,3-12.8,3-12.8l7.21-2.45s3.62-7.74,6.45-5.51,7.43,7.6,5.28,9.44A7.78,7.78,0,0,0,178,84.22s4.83,2.38,4.44,7.36-.54,7-6.52,6.52Z" fill="#f0efec" stroke="#202326" stroke-miterlimit="10"/><path d="M165.93,89.58a5.13,5.13,0,0,1,1.46-6.22l3.51-1.19s1.75-3.77,3.13-2.68,1.55,4.62.51,5.51.9,1.42.9,1.42A3.94,3.94,0,0,1,177.6,90c-.19,2.42-.39,4.47-3.17,3.17-1.73-.82-2.43-3-3.7-3.1C169,90,166.87,91.9,165.93,89.58Z" fill="#c9c5ba" stroke="#202326" stroke-miterlimit="10"/><path d="M162.38,121.92A10.73,10.73,0,0,1,166,109c7.1-5.44,10.93-2.92,13.14-.49,1.29,1.41,2.69,5.24,4.27,6.31,1.75,1.2,8.42,1.44,7,4.77s-5.37,9.17-7.71,7.58-4.33-2-5.29-1c-1.52,1.52-1,5.29-5.93,6.23s-6.88,1.32-8-4.58Z" fill="#f0efec" stroke="#202326" stroke-miterlimit="10"/><path d="M140.08,90.56a10.75,10.75,0,0,1,3.63-12.92c7.1-5.43,10.93-2.91,13.14-.48,1.29,1.41,2.69,5.24,4.27,6.31,1.75,1.19,8.42,1.44,7,4.76s-5.37,9.18-7.71,7.59-4.33-2-5.29-1c-1.52,1.52-1,5.28-5.93,6.22s-6.88,1.32-8-4.57Z" fill="#f0efec" stroke="#202326" stroke-miterlimit="10"/><path d="M87.32,139.36A10.75,10.75,0,0,1,91,126.44c7.1-5.43,10.93-2.91,13.14-.48,1.29,1.41,2.69,5.24,4.27,6.31,1.75,1.19,8.42,1.44,7,4.76s-5.37,9.18-7.71,7.59-4.33-2-5.29-1c-1.52,1.52-1,5.28-5.93,6.22s-6.88,1.32-8-4.57Z" fill="#f0efec" stroke="#202326" stroke-miterlimit="10"/><path d="M63.05,145.55a10.73,10.73,0,0,1,3.63-12.91c7.11-5.43,13.15-.48,13.15-.48l4.26,6.31s8.42,1.44,7,4.76-5.37,9.18-7.71,7.59a7.8,7.8,0,0,0-5.28-1s-1,5.29-5.94,6.23-6.87,1.32-8-4.57Z" fill="#f0efec" stroke="#202326" stroke-miterlimit="10"/><path d="M63.05,145.55a10.73,10.73,0,0,1,3.63-12.91c7.11-5.43,13.15-.48,13.15-.48l4.26,6.31s8.42,1.44,7,4.76-5.37,9.18-7.71,7.59a7.8,7.8,0,0,0-5.28-1s-1,5.29-5.94,6.23-6.87,1.32-8-4.57Z" fill="#f0efec" stroke="#202326" stroke-miterlimit="10"/><path d="M69.75,139.56a5.13,5.13,0,0,1,6.39-.23l2.07,3.06s4.1.7,3.42,2.32-4.06,2.71-5.19,1.94-1.13,1.25-1.13,1.25a3.93,3.93,0,0,1-2.88,3c-2.39.46-4.42.81-3.89-2.22.33-1.88,2.26-3.13,2-4.38C70.21,142.62,67.77,141.08,69.75,139.56Z" fill="#c9c5ba" stroke="#202326" stroke-miterlimit="10"/><path d="M113.7,133.56s-1.13-5.89,2.23-9.59,11.6-3.24,11.6-3.24,6.46,1.82,7.21,5.74l1.13,5.9s4.3,1.21,4.68,3.17a3.66,3.66,0,0,1-3.18,4.68c-2.94.57-2.71-3.55-5.89,1.13s-4.95,6-6.5,3.28-2.15-.6-2.15-.6-5,6-9.22-.27S113.7,133.56,113.7,133.56Z" fill="#f0efec" stroke="#202326" stroke-miterlimit="10"/><path d="M224,113.57a13.07,13.07,0,0,0-1.38.19c-6.52,1.25-12.06,7.11-12.14,13.51l.07-.12a13.75,13.75,0,0,0-26.76,5.12l.24-.05c-2.16-6.41-9.76-10.21-16.59-8.9s-12.25,7.6-11.89,14.36h0a13.75,13.75,0,0,0-26.76,5.07l0,.13c-2-6.68-9.86-10.68-16.85-9.34a14.06,14.06,0,0,0-11.43,14.51,2.33,2.33,0,0,1,0,.28h0a13.75,13.75,0,0,0-26.78,5.14h0c-2.44-5.92-9.65-9.33-16.18-8.08a13,13,0,0,0-2.66.79l69.32,209.54a4,4,0,0,0,4.55,2.67l105.07-20.13a4,4,0,0,0,3.24-4.16Z" fill="#aea898" stroke="#000" stroke-miterlimit="10"/><path d="M155.5,137.68a13.75,13.75,0,0,0-26.76,5.07L172.48,350l18.66-3.57Z" fill="#fff" stroke="#000" stroke-miterlimit="10"/><path d="M210.5,127.15a13.75,13.75,0,0,0-26.76,5.12l25.07,210.78,18.67-3.58Z" fill="#fff" stroke="#000" stroke-miterlimit="10"/><path d="M100.53,148.32a13.75,13.75,0,0,0-26.78,5.14L136.14,357l17.67-3.38Z" fill="#fff" stroke="#000" stroke-miterlimit="10"/></svg>