<svg xmlns="http://www.w3.org/2000/svg" viewBox="0 0 1366.5 434.73">
  <g id="swoop">
    <path d="M0,300c202.31-155.06,383.34,78.87,573.54,115.21,112.32,26,226,17.29,369.39-110.4,122.46-109,284.73-39.75,423.57-4.81V0H0Z" fill="#008060"/>
  </g>
  <g id="popcorn">
    <g>
      <g>
        <path d="M1197.05,227.08s1.23-4.57,4.89-6,9.36,1.69,9.36,1.69,4,3.51,3.14,6.56l-1.22,4.58s2.64,2.34,2.23,3.87a2.9,2.9,0,0,1-3.87,2.23c-2.29-.61-.71-3.46-4.57-1.23s-5.6,2.59-5.75.1-1.32-1.17-1.32-1.17-5.6,2.58-6.46-3.37S1197.05,227.08,1197.05,227.08Z" fill="#f9d49f" stroke="#202326" stroke-miterlimit="10"/>
        <path d="M1200.81,231.36s2.4-5.9,5.6-2.59,3.46-.7,2,4.63-2.14,1.88-2.14,1.88a2.3,2.3,0,0,0-4-.26C1199.94,237.67,1200.81,231.36,1200.81,231.36Z" fill="#ed9b40" stroke="#202326" stroke-miterlimit="10"/>
      </g>
      <g>
        <path d="M1239.91,241s1.23-4.58,4.89-6.05,9.35,1.69,9.35,1.69,4,3.52,3.15,6.57l-1.23,4.57s2.65,2.35,2.24,3.87a2.89,2.89,0,0,1-3.87,2.23c-2.29-.61-.71-3.45-4.58-1.22s-5.59,2.59-5.74.09-1.32-1.17-1.32-1.17-5.6,2.59-6.46-3.36S1239.91,241,1239.91,241Z" fill="#f9d49f" stroke="#202326" stroke-miterlimit="10"/>
        <path d="M1243.67,245.3s2.39-5.9,5.59-2.59,3.46-.71,2,4.63-2.13,1.88-2.13,1.88a2.3,2.3,0,0,0-4-.26C1242.8,251.6,1243.67,245.3,1243.67,245.3Z" fill="#ed9b40" stroke="#202326" stroke-miterlimit="10"/>
      </g>
      <g>
        <path d="M1262.19,237.18s1.43-5.34,4.48-4.52,4,.26,4.67,7c0,0,5.54.67,5.08,5.45s-6,4.11-6,4.11-2.19,5.14-4.89,6.05-5.89-2.4-5.84-5.65l.06-3.26s-6.51-.11-7.37-6.06S1262.19,237.18,1262.19,237.18Z" fill="#f9d49f" stroke="#202326" stroke-miterlimit="10"/>
        <path d="M1264.12,242.13s.54-2,1.74-1.67,1.57.12,1.86,2.63c0,0,2.18.28,2,2.07s-2.33,1.51-2.33,1.51-.84,1.92-1.89,2.24-2.32-.92-2.32-2.14v-1.22s-2.55-.08-2.92-2.31S1264.12,242.13,1264.12,242.13Z" fill="#ed9b40" stroke="#202326" stroke-miterlimit="10"/>
      </g>
      <g>
        <path d="M1219.22,229.76s1.43-5.34,4.48-4.53,4,.26,4.68,7c0,0,5.54.67,5.07,5.45s-6,4.11-6,4.11-2.19,5.13-4.89,6-5.9-2.39-5.84-5.65l0-3.25s-6.51-.11-7.37-6.06S1219.22,229.76,1219.22,229.76Z" fill="#f9d49f" stroke="#202326" stroke-miterlimit="10"/>
        <path d="M1221.16,234.71s.53-2,1.73-1.68,1.58.12,1.87,2.64c0,0,2.17.28,2,2.07s-2.33,1.51-2.33,1.51-.83,1.91-1.89,2.24-2.32-.93-2.31-2.15v-1.22s-2.55-.07-2.91-2.31S1221.16,234.71,1221.16,234.71Z" fill="#ed9b40" stroke="#202326" stroke-miterlimit="10"/>
      </g>
      <g>
        <path d="M1243.35,252.57a8.49,8.49,0,0,1,7-7.93,8.35,8.35,0,0,1,9.51,4.19l.85,5.95s5.49,3.92,3.35,5.8-7,4.67-8.09,2.73a6.13,6.13,0,0,0-3.4-2.54s-2.55,3.4-6.36,2.38-5.34-1.43-4.11-6Z" fill="#f9d49f" stroke="#202326" stroke-miterlimit="10"/>
        <path d="M1243.35,252.57a8.49,8.49,0,0,1,7-7.93,8.35,8.35,0,0,1,9.51,4.19l.85,5.95s5.49,3.92,3.35,5.8-7,4.67-8.09,2.73a6.13,6.13,0,0,0-3.4-2.54s-2.55,3.4-6.36,2.38-5.34-1.43-4.11-6Z" fill="#f9d49f" stroke="#202326" stroke-miterlimit="10"/>
        <path d="M1250.18,250.62a4,4,0,0,1,4.62,2l.42,2.89s2.67,1.91,1.63,2.82-3.82.54-4.36-.4-1.23.49-1.23.49a3.11,3.11,0,0,1-3.09,1.16c-1.85-.49-3.42-.95-2-2.92.88-1.22,2.68-1.44,2.94-2.42C1249.45,253,1248.25,251,1250.18,250.62Z" fill="#ed9b40" stroke="#202326" stroke-miterlimit="10"/>
      </g>
      <path d="M1287.82,263.53s1.23-4.58,4.89-6,9.36,1.69,9.36,1.69,4,3.52,3.14,6.57l-1.22,4.57s2.64,2.35,2.23,3.87a2.89,2.89,0,0,1-3.87,2.23c-2.28-.61-.7-3.46-4.57-1.22s-5.6,2.59-5.75.09-1.32-1.17-1.32-1.17-5.6,2.59-6.45-3.36S1287.82,263.53,1287.82,263.53Z" fill="#f9d49f" stroke="#202326" stroke-miterlimit="10"/>
      <path d="M1272,246.22s1.22-4.58,4.89-6.05,9.35,1.69,9.35,1.69,4,3.52,3.15,6.57l-1.23,4.57s2.64,2.35,2.24,3.87a2.89,2.89,0,0,1-3.87,2.23c-2.29-.61-.71-3.46-4.58-1.22s-5.6,2.58-5.74.09-1.33-1.17-1.33-1.17-5.59,2.59-6.45-3.36S1272,246.22,1272,246.22Z" fill="#f9d49f" stroke="#202326" stroke-miterlimit="10"/>
      <g>
        <path d="M1213.08,219.12a8.49,8.49,0,0,1,7-7.93,8.35,8.35,0,0,1,9.51,4.19l.85,6s5.49,3.92,3.35,5.8-7,4.67-8.09,2.74a6.12,6.12,0,0,0-3.4-2.55s-2.55,3.4-6.36,2.38-5.34-1.43-4.11-6Z" fill="#f9d49f" stroke="#202326" stroke-miterlimit="10"/>
        <path d="M1213.08,219.12a8.49,8.49,0,0,1,7-7.93,8.35,8.35,0,0,1,9.51,4.19l.85,6s5.49,3.92,3.35,5.8-7,4.67-8.09,2.74a6.12,6.12,0,0,0-3.4-2.55s-2.55,3.4-6.36,2.38-5.34-1.43-4.11-6Z" fill="#f9d49f" stroke="#202326" stroke-miterlimit="10"/>
        <path d="M1219.91,217.17a4,4,0,0,1,4.62,2l.42,2.89s2.66,1.91,1.62,2.82-3.81.54-4.35-.4-1.23.49-1.23.49a3.11,3.11,0,0,1-3.09,1.16c-1.85-.49-3.42-.95-2-2.92.88-1.22,2.68-1.44,2.94-2.42C1219.18,219.5,1218,217.56,1219.91,217.17Z" fill="#ed9b40" stroke="#202326" stroke-miterlimit="10"/>
      </g>
      <g>
        <path d="M1237.16,209a8.48,8.48,0,0,1,9.8-4,8.35,8.35,0,0,1,6.69,7.95l-1.86,5.72s3.19,5.94.45,6.68-8.32,1.12-8.47-1.11a6.18,6.18,0,0,0-1.93-3.79s-3.79,1.93-6.76-.67-4.16-3.64-1-7.2Z" fill="#f9d49f" stroke="#202326" stroke-miterlimit="10"/>
        <path d="M1237.16,209a8.48,8.48,0,0,1,9.8-4,8.35,8.35,0,0,1,6.69,7.95l-1.86,5.72s3.19,5.94.45,6.68-8.32,1.12-8.47-1.11a6.18,6.18,0,0,0-1.93-3.79s-3.79,1.93-6.76-.67-4.16-3.64-1-7.2Z" fill="#f9d49f" stroke="#202326" stroke-miterlimit="10"/>
        <path d="M1244.15,210.26a4.06,4.06,0,0,1,3.25,3.87l-.91,2.78s1.56,2.88.22,3.24-3.66-1.2-3.73-2.28-1.32-.1-1.32-.1a3.12,3.12,0,0,1-3.29-.32c-1.44-1.26-2.65-2.36-.5-3.5,1.33-.71,3-.12,3.7-.88C1242.46,212,1242.23,209.77,1244.15,210.26Z" fill="#ed9b40" stroke="#202326" stroke-miterlimit="10"/>
      </g>
      <path d="M1224.41,219.56s1.22-4.57,4.89-6,9.35,1.69,9.35,1.69,4,3.51,3.15,6.56l-1.23,4.58s2.64,2.34,2.23,3.87a2.89,2.89,0,0,1-3.86,2.23c-2.29-.61-.71-3.46-4.58-1.23s-5.6,2.59-5.75.1-1.32-1.17-1.32-1.17-5.59,2.58-6.45-3.37S1224.41,219.56,1224.41,219.56Z" fill="#f9d49f" stroke="#202326" stroke-miterlimit="10"/>
      <g>
        <path d="M1257.53,224.21s5.25-1.73,6.24,1.26,2,3.5-3.26,7.74c0,0,2.49,5-1.76,7.24s-6.73-2.76-6.73-2.76-5.5,1-7.74-.76-1.24-6.25,1.51-8l2.75-1.74s-3.49-5.5,1-9.49S1257.53,224.21,1257.53,224.21Z" fill="#f9d49f" stroke="#202326" stroke-miterlimit="10"/>
        <path d="M1254.46,228.55s2-.65,2.35.53.77,1.38-1.18,3c0,0,1,2-.62,2.82s-2.54-1.12-2.54-1.12-2.06.35-2.91-.34-.5-2.45.52-3.12l1-.66s-1.34-2.18.33-3.71S1254.46,228.55,1254.46,228.55Z" fill="#ed9b40" stroke="#202326" stroke-miterlimit="10"/>
      </g>
      <g>
        <path d="M1279.25,258.92a8.49,8.49,0,0,1,7-7.93,8.33,8.33,0,0,1,9.5,4.18l.86,6s5.49,3.92,3.35,5.8-7,4.67-8.09,2.73a6.13,6.13,0,0,0-3.4-2.54s-2.55,3.4-6.36,2.38-5.34-1.43-4.11-6Z" fill="#f9d49f" stroke="#202326" stroke-miterlimit="10"/>
        <path d="M1279.25,258.92a8.49,8.49,0,0,1,7-7.93,8.33,8.33,0,0,1,9.5,4.18l.86,6s5.49,3.92,3.35,5.8-7,4.67-8.09,2.73a6.13,6.13,0,0,0-3.4-2.54s-2.55,3.4-6.36,2.38-5.34-1.43-4.11-6Z" fill="#f9d49f" stroke="#202326" stroke-miterlimit="10"/>
        <path d="M1286.08,257a4,4,0,0,1,4.62,2l.42,2.89s2.66,1.91,1.62,2.82-3.81.54-4.35-.4-1.23.49-1.23.49a3.11,3.11,0,0,1-3.09,1.16c-1.86-.5-3.42-.95-2-2.92.88-1.22,2.68-1.44,2.94-2.42C1285.35,259.29,1284.14,257.36,1286.08,257Z" fill="#ed9b40" stroke="#202326" stroke-miterlimit="10"/>
      </g>
      <path d="M1251,231.57s2.1,4.25.32,7.77-8.13,4.92-8.13,4.92-5.3,0-6.7-2.85l-2.11-4.24s-3.53,0-4.23-1.43a2.89,2.89,0,0,1,1.43-4.23c2.12-1,2.82,2.13,4.24-2.1s2.49-5.64,4.25-3.87,1.77,0,1.77,0,2.49-5.64,7.06-1.74S1251,231.57,1251,231.57Z" fill="#f9d49f" stroke="#202326" stroke-miterlimit="10"/>
      <g>
        <path d="M1276,240.59a8.47,8.47,0,0,1-5.79-8.87,8.33,8.33,0,0,1,6.54-8.06l6,.74s5.23-4.26,6.48-1.7,2.67,8,.51,8.53a6.16,6.16,0,0,0-3.36,2.61s2.61,3.35.62,6.76-2.79,4.77-6.88,2.38Z" fill="#f9d49f" stroke="#202326" stroke-miterlimit="10"/>
        <path d="M1276,240.59a8.47,8.47,0,0,1-5.79-8.87,8.33,8.33,0,0,1,6.54-8.06l6,.74s5.23-4.26,6.48-1.7,2.67,8,.51,8.53a6.16,6.16,0,0,0-3.36,2.61s2.61,3.35.62,6.76-2.79,4.77-6.88,2.38Z" fill="#f9d49f" stroke="#202326" stroke-miterlimit="10"/>
        <path d="M1275.91,233.49a4.06,4.06,0,0,1,3.18-3.92l2.9.36s2.54-2.07,3.15-.82-.49,3.82-1.54,4.09.16,1.32.16,1.32a3.13,3.13,0,0,1,.3,3.29c-1,1.65-1.82,3-3.35,1.15-1-1.17-.68-3-1.56-3.47C1278,234.81,1275.78,235.46,1275.91,233.49Z" fill="#ed9b40" stroke="#202326" stroke-miterlimit="10"/>
      </g>
      <path d="M1262.25,255.25a8.49,8.49,0,0,1,7-7.93c6.92-1.41,8.77,1.69,9.51,4.18.42,1.45.1,4.65.85,6s5.49,3.92,3.35,5.8-7,4.67-8.09,2.73-2.4-2.89-3.4-2.54c-1.61.55-2.55,3.4-6.36,2.38s-5.34-1.43-4.11-6Z" fill="#f9d49f" stroke="#202326" stroke-miterlimit="10"/>
      <path d="M1257.2,225.29a8.49,8.49,0,0,1,7-7.93c6.92-1.41,8.77,1.69,9.51,4.18.42,1.44.1,4.65.85,6,.84,1.46,5.49,3.93,3.35,5.81s-7,4.67-8.09,2.73-2.4-2.89-3.4-2.54c-1.61.55-2.55,3.4-6.36,2.38s-5.34-1.43-4.11-6Z" fill="#f9d49f" stroke="#202326" stroke-miterlimit="10"/>
      <path d="M1202.92,241.8a8.47,8.47,0,0,1,7-7.92c6.91-1.42,8.76,1.69,9.5,4.18.43,1.44.11,4.65.86,5.95.83,1.45,5.49,3.92,3.35,5.8s-7,4.67-8.09,2.74-2.4-2.9-3.41-2.55c-1.6.56-2.54,3.4-6.36,2.38s-5.33-1.43-4.11-6Z" fill="#f9d49f" stroke="#202326" stroke-miterlimit="10"/>
      <g>
        <path d="M1183.54,237.85a8.47,8.47,0,0,1,7-7.92,8.32,8.32,0,0,1,9.5,4.18l.86,5.95s5.49,3.92,3.35,5.8-7,4.67-8.09,2.74a6.18,6.18,0,0,0-3.4-2.55s-2.55,3.41-6.36,2.39-5.34-1.44-4.11-6Z" fill="#f9d49f" stroke="#202326" stroke-miterlimit="10"/>
        <path d="M1183.54,237.85a8.47,8.47,0,0,1,7-7.92,8.32,8.32,0,0,1,9.5,4.18l.86,5.95s5.49,3.92,3.35,5.8-7,4.67-8.09,2.74a6.18,6.18,0,0,0-3.4-2.55s-2.55,3.41-6.36,2.39-5.34-1.44-4.11-6Z" fill="#f9d49f" stroke="#202326" stroke-miterlimit="10"/>
        <path d="M1190.37,235.9a4,4,0,0,1,4.62,2l.42,2.9s2.66,1.9,1.62,2.82-3.81.53-4.35-.41-1.23.5-1.23.5a3.13,3.13,0,0,1-3.09,1.16c-1.86-.5-3.42-1-2-2.92.88-1.23,2.68-1.45,2.94-2.43C1189.64,238.23,1188.43,236.3,1190.37,235.9Z" fill="#ed9b40" stroke="#202326" stroke-miterlimit="10"/>
      </g>
      <path d="M1223.66,246.76s1.22-4.57,4.89-6,9.35,1.69,9.35,1.69,4,3.51,3.15,6.56l-1.23,4.58s2.64,2.34,2.24,3.86a2.9,2.9,0,0,1-3.87,2.24c-2.29-.62-.71-3.46-4.58-1.23s-5.6,2.59-5.75.1-1.32-1.18-1.32-1.18-5.59,2.59-6.45-3.36S1223.66,246.76,1223.66,246.76Z" fill="#f9d49f" stroke="#202326" stroke-miterlimit="10"/>
      <path d="M1308.88,270.51c-.34-.13-.69-.24-1.05-.34-5.06-1.36-11,.9-13.28,5.42l.1-.06a10.86,10.86,0,0,0-20.78-5.57l.19.05c.67-5.3-3.42-10.62-8.73-12s-11.32,1.18-13.39,6.11h0a10.86,10.86,0,0,0-20.76-5.61l0,.1c.88-5.43-3.33-11-8.75-12.43a11.1,11.1,0,0,0-13.12,6.37c0,.07,0,.15-.06.22h0a10.86,10.86,0,0,0-20.8-5.57h0c.31-5-3.64-10-8.71-11.31a10.9,10.9,0,0,0-2.17-.35l-22.86,172.75a3.15,3.15,0,0,0,2.31,3.46l81.59,21.86a3.15,3.15,0,0,0,3.73-1.84Z" fill="#8cc63f" stroke="#202326" stroke-miterlimit="10"/>
      <path d="M1251.94,264.08a10.86,10.86,0,0,0-20.76-5.61l-40.26,162.32,14.49,3.89Z" fill="#fff" stroke="#202326" stroke-miterlimit="10"/>
      <path d="M1294.65,275.53a10.86,10.86,0,0,0-20.78-5.57l-54.73,158.39,14.49,3.89Z" fill="#fff" stroke="#202326" stroke-miterlimit="10"/>
      <path d="M1209.22,252.72a10.86,10.86,0,0,0-20.8-5.57L1162.7,413.23l13.73,3.68Z" fill="#fff" stroke="#202326" stroke-miterlimit="10"/>
    </g>
    <g>
      <g>
        <path d="M69.82,254.21s-1.23-4.57,1.21-7.68,9-3.21,9-3.21,5.18,1.06,6,4.11L87.21,252s3.46.71,3.87,2.24a2.89,2.89,0,0,1-2.24,3.86c-2.29.62-2.34-2.64-4.57,1.23s-3.56,5-4.93,3-1.73-.36-1.73-.36-3.56,5-7.27.32S69.82,254.21,69.82,254.21Z" fill="#f9d49f" stroke="#202326" stroke-miterlimit="10"/>
        <path d="M75.21,256s-.87-6.31,3.55-5,2.65-2.35,4.08,3-.92,2.7-.92,2.7a2.28,2.28,0,0,0-3.6,1.78C77.61,261.93,75.21,256,75.21,256Z" fill="#ed9b40" stroke="#202326" stroke-miterlimit="10"/>
      </g>
      <g>
        <path d="M113.9,244.85s-1.23-4.57,1.21-7.68,9-3.21,9-3.21,5.19,1.06,6,4.11l1.23,4.57s3.46.71,3.87,2.24a2.89,2.89,0,0,1-2.24,3.86c-2.28.62-2.34-2.64-4.57,1.23s-3.56,5-4.93,3-1.73-.36-1.73-.36-3.55,5-7.27.32S113.9,244.85,113.9,244.85Z" fill="#f9d49f" stroke="#202326" stroke-miterlimit="10"/>
        <path d="M119.29,246.68s-.87-6.31,3.56-5,2.64-2.35,4.07,3-.91,2.7-.91,2.7a2.29,2.29,0,0,0-3.61,1.78C121.69,252.57,119.29,246.68,119.29,246.68Z" fill="#ed9b40" stroke="#202326" stroke-miterlimit="10"/>
      </g>
      <g>
        <path d="M131.28,230.39s-1.44-5.34,1.62-6.16,3.6-1.78,7.53,3.7c0,0,5.13-2.19,7.12,2.18s-3.15,6.57-3.15,6.57.67,5.54-1.21,7.68-6.3.87-7.88-2l-1.58-2.84s-5.7,3.16-9.41-1.57S131.28,230.39,131.28,230.39Z" fill="#f9d49f" stroke="#202326" stroke-miterlimit="10"/>
        <path d="M135.43,233.71s-.54-2,.66-2.32,1.42-.69,2.93,1.35c0,0,2-.85,2.78.78s-1.26,2.48-1.26,2.48.23,2.07-.51,2.88-2.48.36-3.08-.7l-.61-1.06s-2.24,1.21-3.68-.54S135.43,233.71,135.43,233.71Z" fill="#ed9b40" stroke="#202326" stroke-miterlimit="10"/>
      </g>
      <g>
        <path d="M90.35,245.44s-1.43-5.34,1.62-6.16,3.61-1.78,7.53,3.71c0,0,5.14-2.2,7.13,2.18s-3.15,6.56-3.15,6.56.67,5.54-1.21,7.68-6.31.87-7.89-2l-1.58-2.85s-5.69,3.16-9.41-1.56S90.35,245.44,90.35,245.44Z" fill="#f9d49f" stroke="#202326" stroke-miterlimit="10"/>
        <path d="M94.5,248.76s-.53-2,.67-2.32,1.42-.68,2.93,1.35c0,0,2-.84,2.78.78s-1.26,2.48-1.26,2.48.23,2.07-.52,2.88-2.47.36-3.08-.7l-.6-1.06s-2.25,1.22-3.68-.54S94.5,248.76,94.5,248.76Z" fill="#ed9b40" stroke="#202326" stroke-miterlimit="10"/>
      </g>
      <g>
        <path d="M122.66,253.13a8.48,8.48,0,0,1,2.12-10.38,8.34,8.34,0,0,1,10.32-1.13l3.72,4.73s6.72.65,5.8,3.35-3.7,7.53-5.63,6.41a6.22,6.22,0,0,0-4.23-.5s-.5,4.22-4.31,5.24-5.34,1.43-6.57-3.14Z" fill="#f9d49f" stroke="#202326" stroke-miterlimit="10"/>
        <path d="M122.66,253.13a8.48,8.48,0,0,1,2.12-10.38,8.34,8.34,0,0,1,10.32-1.13l3.72,4.73s6.72.65,5.8,3.35-3.7,7.53-5.63,6.41a6.22,6.22,0,0,0-4.23-.5s-.5,4.22-4.31,5.24-5.34,1.43-6.57-3.14Z" fill="#f9d49f" stroke="#202326" stroke-miterlimit="10"/>
        <path d="M127.59,248a4,4,0,0,1,5-.55l1.81,2.29s3.26.32,2.82,1.63-3,2.37-4,1.83-.81,1-.81,1a3.12,3.12,0,0,1-2.1,2.55c-1.85.5-3.43.89-3.19-1.53.15-1.5,1.6-2.59,1.33-3.56C128.12,250.41,126.12,249.34,127.59,248Z" fill="#ed9b40" stroke="#202326" stroke-miterlimit="10"/>
      </g>
      <path d="M166.65,240.39s-1.23-4.58,1.21-7.68,8.95-3.22,8.95-3.22,5.19,1.06,6,4.11l1.23,4.58s3.46.71,3.87,2.23a2.89,2.89,0,0,1-2.24,3.87c-2.28.61-2.34-2.64-4.57,1.23s-3.55,5-4.93,3-1.73-.35-1.73-.35-3.55,5-7.27.31S166.65,240.39,166.65,240.39Z" fill="#f9d49f" stroke="#202326" stroke-miterlimit="10"/>
      <path d="M144.31,233.29s-1.22-4.57,1.22-7.68,8.94-3.21,8.94-3.21,5.19,1.06,6,4.11l1.23,4.58s3.45.7,3.86,2.23a2.89,2.89,0,0,1-2.23,3.87c-2.29.61-2.34-2.64-4.58,1.22s-3.55,5-4.93,3-1.72-.35-1.72-.35-3.56,5-7.28.31S144.31,233.29,144.31,233.29Z" fill="#f9d49f" stroke="#202326" stroke-miterlimit="10"/>
      <g>
        <path d="M79.72,239.3a8.48,8.48,0,0,1,2.12-10.38,8.34,8.34,0,0,1,10.32-1.13l3.72,4.72s6.71.66,5.8,3.35-3.7,7.54-5.63,6.42a6.15,6.15,0,0,0-4.23-.5s-.5,4.22-4.31,5.24-5.34,1.43-6.57-3.15Z" fill="#f9d49f" stroke="#202326" stroke-miterlimit="10"/>
        <path d="M79.72,239.3a8.48,8.48,0,0,1,2.12-10.38,8.34,8.34,0,0,1,10.32-1.13l3.72,4.72s6.71.66,5.8,3.35-3.7,7.54-5.63,6.42a6.15,6.15,0,0,0-4.23-.5s-.5,4.22-4.31,5.24-5.34,1.43-6.57-3.15Z" fill="#f9d49f" stroke="#202326" stroke-miterlimit="10"/>
        <path d="M84.65,234.19a4.06,4.06,0,0,1,5-.55l1.81,2.3s3.26.32,2.82,1.63-3,2.37-4,1.83-.81,1-.81,1a3.13,3.13,0,0,1-2.1,2.55c-1.85.5-3.43.89-3.19-1.53.15-1.5,1.6-2.59,1.33-3.57C85.18,236.58,83.18,235.5,84.65,234.19Z" fill="#ed9b40" stroke="#202326" stroke-miterlimit="10"/>
      </g>
      <g>
        <path d="M95.51,218.5a8.48,8.48,0,0,1,6.48-8.38,8.33,8.33,0,0,1,9.76,3.54l1.26,5.88s5.73,3.55,3.73,5.57-6.65,5.12-7.89,3.27a6.18,6.18,0,0,0-3.57-2.32s-2.31,3.57-6.19,2.81-5.42-1.08-4.5-5.72Z" fill="#f9d49f" stroke="#202326" stroke-miterlimit="10"/>
        <path d="M95.51,218.5a8.48,8.48,0,0,1,6.48-8.38,8.33,8.33,0,0,1,9.76,3.54l1.26,5.88s5.73,3.55,3.73,5.57-6.65,5.12-7.89,3.27a6.18,6.18,0,0,0-3.57-2.32s-2.31,3.57-6.19,2.81-5.42-1.08-4.5-5.72Z" fill="#f9d49f" stroke="#202326" stroke-miterlimit="10"/>
        <path d="M102.19,216.1a4.06,4.06,0,0,1,4.75,1.72l.6,2.86s2.79,1.72,1.82,2.7-3.77.79-4.38-.11-1.19.57-1.19.57a3.12,3.12,0,0,1-3,1.37c-1.88-.38-3.47-.72-2.19-2.78.8-1.29,2.59-1.63,2.77-2.62C101.62,218.47,100.29,216.62,102.19,216.1Z" fill="#ed9b40" stroke="#202326" stroke-miterlimit="10"/>
      </g>
      <path d="M89.75,234s-1.23-4.57,1.21-7.68,8.94-3.21,8.94-3.21,5.19,1.06,6,4.11l1.23,4.57s3.46.71,3.86,2.24a2.88,2.88,0,0,1-2.23,3.86c-2.29.62-2.34-2.64-4.57,1.23s-3.56,5-4.93,3-1.73-.36-1.73-.36-3.56,5-7.28.32S89.75,234,89.75,234Z" fill="#f9d49f" stroke="#202326" stroke-miterlimit="10"/>
      <g>
        <path d="M120.76,221.49s3.67-4.13,6-2,3.48,2,1,8.32c0,0,4.65,3.09,2.09,7.15s-7.21,1-7.21,1-4.26,3.61-7.08,3.21-4.2-4.79-2.69-7.67l1.51-2.89s-5.77-3-3.86-8.72S120.76,221.49,120.76,221.49Z" fill="#f9d49f" stroke="#202326" stroke-miterlimit="10"/>
        <path d="M120.27,226.78s1.37-1.54,2.3-.72,1.35.81.48,3.19c0,0,1.82,1.23.88,2.76s-2.77.3-2.77.3-1.6,1.33-2.69,1.16-1.66-1.87-1.11-3l.56-1.09s-2.25-1.21-1.58-3.37S120.27,226.78,120.27,226.78Z" fill="#ed9b40" stroke="#202326" stroke-miterlimit="10"/>
      </g>
      <g>
        <path d="M156.92,240.68A8.48,8.48,0,0,1,159,230.3a8.35,8.35,0,0,1,10.33-1.13l3.71,4.73s6.72.65,5.81,3.35-3.71,7.53-5.64,6.41a6.13,6.13,0,0,0-4.22-.5s-.51,4.22-4.32,5.24-5.34,1.43-6.56-3.14Z" fill="#f9d49f" stroke="#202326" stroke-miterlimit="10"/>
        <path d="M156.92,240.68A8.48,8.48,0,0,1,159,230.3a8.35,8.35,0,0,1,10.33-1.13l3.71,4.73s6.72.65,5.81,3.35-3.71,7.53-5.64,6.41a6.13,6.13,0,0,0-4.22-.5s-.51,4.22-4.32,5.24-5.34,1.43-6.56-3.14Z" fill="#f9d49f" stroke="#202326" stroke-miterlimit="10"/>
        <path d="M161.86,235.58a4,4,0,0,1,5-.55l1.81,2.29s3.26.32,2.82,1.63-3,2.37-4,1.83-.82,1-.82,1a3.12,3.12,0,0,1-2.1,2.55c-1.85.5-3.43.89-3.19-1.53.15-1.5,1.6-2.59,1.33-3.56C162.39,238,160.38,236.89,161.86,235.58Z" fill="#ed9b40" stroke="#202326" stroke-miterlimit="10"/>
      </g>
      <path d="M118.81,231.11s4,2.62,4.17,6.56-4.59,8.33-4.59,8.33-4.59,2.63-7.22.88l-4-2.62s-3.06,1.76-4.37.88a2.89,2.89,0,0,1-.89-4.38c1.32-2,3.51.44,2.63-3.94s-.67-6.13,1.74-5.48,1.53-.88,1.53-.88-.66-6.13,5.25-5S118.81,231.11,118.81,231.11Z" fill="#f9d49f" stroke="#202326" stroke-miterlimit="10"/>
      <g>
        <path d="M144.93,226.44a8.47,8.47,0,0,1-9.45-4.79,8.33,8.33,0,0,1,1.64-10.25l5.54-2.34s2.4-6.31,4.76-4.71,6.29,5.56,4.7,7.13a6.15,6.15,0,0,0-1.6,3.94s3.94,1.6,3.92,5.54,0,5.53-4.77,5.51Z" fill="#f9d49f" stroke="#202326" stroke-miterlimit="10"/>
        <path d="M144.93,226.44a8.47,8.47,0,0,1-9.45-4.79,8.33,8.33,0,0,1,1.64-10.25l5.54-2.34s2.4-6.31,4.76-4.71,6.29,5.56,4.7,7.13a6.15,6.15,0,0,0-1.6,3.94s3.94,1.6,3.92,5.54,0,5.53-4.77,5.51Z" fill="#f9d49f" stroke="#202326" stroke-miterlimit="10"/>
        <path d="M141.31,220.33a4.05,4.05,0,0,1,.8-5l2.69-1.14s1.17-3.06,2.31-2.29,1.49,3.55.72,4.32.79,1.06.79,1.06a3.1,3.1,0,0,1,1.9,2.7c0,1.91-.05,3.54-2.31,2.67-1.41-.54-2.08-2.23-3.09-2.23C143.75,220.45,142.19,222.1,141.31,220.33Z" fill="#ed9b40" stroke="#202326" stroke-miterlimit="10"/>
      </g>
      <path d="M140.36,246a8.48,8.48,0,0,1,2.13-10.38c5.28-4.68,8.44-2.91,10.32-1.13,1.09,1,2.42,4,3.72,4.73s6.71.65,5.8,3.35-3.7,7.53-5.64,6.41-3.52-1.31-4.22-.5c-1.11,1.28-.5,4.22-4.32,5.24s-5.33,1.43-6.56-3.14Z" fill="#f9d49f" stroke="#202326" stroke-miterlimit="10"/>
      <path d="M121,222.58a8.48,8.48,0,0,1,2.12-10.38c5.29-4.68,8.44-2.92,10.33-1.13,1.09,1,2.41,4,3.71,4.73,1.45.83,6.72.65,5.81,3.34s-3.71,7.54-5.64,6.42-3.53-1.31-4.22-.5c-1.12,1.28-.51,4.22-4.32,5.24s-5.34,1.43-6.56-3.15Z" fill="#f9d49f" stroke="#202326" stroke-miterlimit="10"/>
      <path d="M82.25,264a8.46,8.46,0,0,1,2.13-10.37c5.28-4.69,8.44-2.92,10.32-1.14,1.09,1,2.42,4,3.72,4.73,1.45.84,6.71.65,5.8,3.35s-3.7,7.53-5.64,6.41-3.52-1.3-4.22-.5c-1.11,1.28-.5,4.22-4.32,5.24s-5.33,1.43-6.56-3.14Z" fill="#f9d49f" stroke="#202326" stroke-miterlimit="10"/>
      <g>
        <path d="M63.5,270.29a8.48,8.48,0,0,1,2.12-10.38A8.35,8.35,0,0,1,76,258.78l3.71,4.73s6.72.65,5.81,3.35-3.71,7.53-5.64,6.41a6.19,6.19,0,0,0-4.22-.5S75.1,277,71.29,278s-5.34,1.43-6.56-3.14Z" fill="#f9d49f" stroke="#202326" stroke-miterlimit="10"/>
        <path d="M63.5,270.29a8.48,8.48,0,0,1,2.12-10.38A8.35,8.35,0,0,1,76,258.78l3.71,4.73s6.72.65,5.81,3.35-3.71,7.53-5.64,6.41a6.19,6.19,0,0,0-4.22-.5S75.1,277,71.29,278s-5.34,1.43-6.56-3.14Z" fill="#f9d49f" stroke="#202326" stroke-miterlimit="10"/>
        <path d="M68.44,265.19a4,4,0,0,1,5-.55l1.81,2.3s3.26.31,2.82,1.62-3,2.37-4,1.83-.82,1.05-.82,1.05a3.09,3.09,0,0,1-2.1,2.54c-1.85.5-3.43.89-3.19-1.52.15-1.51,1.6-2.6,1.33-3.57C69,267.57,67,266.5,68.44,265.19Z" fill="#ed9b40" stroke="#202326" stroke-miterlimit="10"/>
      </g>
      <path d="M102.7,258s-1.23-4.58,1.21-7.68,8.94-3.21,8.94-3.21,5.19,1.06,6,4.11l1.23,4.57s3.46.71,3.86,2.24a2.88,2.88,0,0,1-2.23,3.86c-2.29.62-2.34-2.64-4.57,1.23s-3.56,5-4.93,3-1.73-.36-1.73-.36-3.56,5-7.28.32S102.7,258,102.7,258Z" fill="#f9d49f" stroke="#202326" stroke-miterlimit="10"/>
      <path d="M188.37,235.9c-.36.06-.71.14-1.07.23-5.07,1.36-9.1,6.29-8.79,11.33l.05-.09a10.86,10.86,0,0,0-20.78,5.56l.19-.05c-2.07-4.93-8.28-7.49-13.58-6.06s-9.21,6.69-8.54,12h0a10.85,10.85,0,0,0-20.78,5.51l0,.11c-2-5.14-8.37-7.85-13.8-6.39a11.09,11.09,0,0,0-8.17,12.08,1.66,1.66,0,0,0,.06.21h0a10.86,10.86,0,0,0-20.8,5.57h0c-2.26-4.51-8.13-6.79-13.2-5.44a11.83,11.83,0,0,0-2.06.78l66.58,161a3.13,3.13,0,0,0,3.73,1.84L209,412.26a3.15,3.15,0,0,0,2.31-3.46Z" fill="#8cc63f" stroke="#202326" stroke-miterlimit="10"/>
      <path d="M135.85,258.81a10.85,10.85,0,0,0-20.78,5.51L161.36,425l14.49-3.88Z" fill="#fff" stroke="#202326" stroke-miterlimit="10"/>
      <path d="M178.56,247.37a10.86,10.86,0,0,0-20.78,5.56l31.8,164.54,14.49-3.88Z" fill="#fff" stroke="#202326" stroke-miterlimit="10"/>
      <path d="M93.18,270.33a10.86,10.86,0,0,0-20.8,5.57l60.76,156.69,13.73-3.67Z" fill="#fff" stroke="#202326" stroke-miterlimit="10"/>
    </g>
  </g>
</svg>
